<svg xmlns="http://www.w3.org/2000/svg" viewBox="0 0 521.5908 201.2728"><defs><style>.cls-1{fill:#0c313f;}.cls-2{fill:#98c940;}</style></defs><g id="Layer_2" data-name="Layer 2"><g id="Layer_1-2" data-name="Layer 1"><path class="cls-1" d="M376.21836,97.26356v57.8821H383.807V165.7103h-7.58868q-.44655,17.70566-11.90381,27.0811-10.56681,8.48145-27.52736,8.4814H320.27055q-16.51665,0-26.93234-7.8862-12.64863-9.67413-12.64768-29.01547V133.27252l6.39826-5.20795h6.24942v36.009q0,14.87741,7.81215,20.75724,7.81178,5.87636,27.30427,5.87749,18.59847,0,26.18809-5.0591,8.92815-6.103,8.928-21.57563v-66.81Z"/><path class="cls-1" d="M422.79129,97.26356v54.311a14.66963,14.66963,0,0,1-.44655,3.57106h7.88639V165.7103h-5.80325l-4.31513-5.20794h-.44617a12.56107,12.56107,0,0,1-10.41607,5.20794H383.36012V155.14566h21.12909a5.23327,5.23327,0,0,0,3.86858-1.48792,5.4,5.4,0,0,0,1.78582-4.16638V97.26356Zm-25.44422,83.92163a7.36806,7.36806,0,0,1,7.291,7.29108,7.19106,7.19106,0,0,1-2.15775,5.28227,7.18569,7.18569,0,0,1-10.26685,0,7.18231,7.18231,0,0,1-2.15775-5.28227,7.368,7.368,0,0,1,7.29136-7.29108Zm18.00438,0a7.18174,7.18174,0,0,1,5.28209,2.15756,7.012,7.012,0,0,1,2.15775,5.13352,7.36791,7.36791,0,0,1-7.43984,7.43983,7.012,7.012,0,0,1-5.13361-2.15756,7.182,7.182,0,0,1-2.15737-5.28227,7.36738,7.36738,0,0,1,7.291-7.29108Z"/><path class="cls-1" d="M456.71691,155.14566V165.7103H429.18956V155.14566Z"/><path class="cls-1" d="M483.202,155.14566V165.7103H455.67459V155.14566Z"/><path class="cls-1" d="M521.5908,97.26356v54.311a13.85844,13.85844,0,0,1-3.57126,9.523A12.69363,12.69363,0,0,1,508.05,165.7103H482.15962V155.14566h21.12909a5.40662,5.40662,0,0,0,4.16628-1.78553,5.23644,5.23644,0,0,0,1.48812-3.86877V97.26356Zm-10.11838,83.92163a7.3674,7.3674,0,0,1,7.291,7.29108,7.19074,7.19074,0,0,1-2.15738,5.28227,7.18568,7.18568,0,0,1-10.26684,0,7.18085,7.18085,0,0,1-2.15776-5.28227,7.36807,7.36807,0,0,1,7.291-7.29108Z"/><path class="cls-1" d="M327.11536,117.96182a7.36742,7.36742,0,0,1,7.291,7.29108,7.18844,7.18844,0,0,1-2.15738,5.28228,7.18613,7.18613,0,0,1-10.26722,0,7.17826,7.17826,0,0,1-2.15737-5.28228,7.3674,7.3674,0,0,1,7.291-7.29108Z"/><path class="cls-1" d="M232.84012,28.35388A34.88408,34.88408,0,0,1,258.8676,39.47741a37.54835,37.54835,0,0,1,10.75976,27.118,37.54455,37.54455,0,0,1-10.75976,27.118,34.88408,34.88408,0,0,1-26.02748,11.12353q-18.03137,0-27.48161-14.3951v41.58572H192.70842V30.24421h12.65009V42.749Q214.80877,28.35389,232.84012,28.35388Zm-1.59946,64.26885a24.75985,24.75985,0,0,0,18.32108-7.48819,25.30559,25.30559,0,0,0,7.41553-18.53917,25.31284,25.31284,0,0,0-7.41553-18.53917,26.33471,26.33471,0,0,0-36.78747,0,25.313,25.313,0,0,0-7.41576,18.53917,25.30575,25.30575,0,0,0,7.41576,18.53917A24.93185,24.93185,0,0,0,231.24066,92.62273Z"/><path class="cls-1" d="M288.6748,17.01238a8.28783,8.28783,0,0,1-6.10694-2.47185,8.11754,8.11754,0,0,1-2.47208-5.96162,8.362,8.362,0,0,1,2.47208-6.03429A8.17874,8.17874,0,0,1,288.6748,0a8.01759,8.01759,0,0,1,5.96163,2.54462,8.37115,8.37115,0,0,1,2.47184,6.03429,8.12628,8.12628,0,0,1-2.47184,5.96162A8.121,8.121,0,0,1,288.6748,17.01238ZM282.277,102.94653V30.24421h12.65009v72.70232Z"/><path class="cls-1" d="M347.99788,28.35388q12.79321,0,20.502,8.06994,7.70536,8.07017,7.7064,21.88352v44.63919H363.55624V59.03441q0-8.86748-4.79836-13.74081-4.79836-4.87-13.23184-4.87114-9.45372,0-15.26748,5.889-5.81746,5.889-5.81631,18.10287v38.53224H311.79216V30.24421h12.65009V40.71333Q332.14761,28.35625,347.99788,28.35388Z"/><path class="cls-1" d="M400.19746,72.41156q1.8879,9.74321,8.94233,15.12205,7.05107,5.38116,17.376,5.38,14.39475,0,20.93824-10.61456l10.75976,6.10706q-10.61547,16.433-31.98887,16.43075-17.30556,0-28.13579-10.83265Q387.25534,83.1737,387.2565,66.59537q0-16.42965,10.61444-27.33606,10.61236-10.90548,27.48161-10.90543,15.99316,0,26.10014,11.26885a39.21789,39.21789,0,0,1,10.10559,27.11808,38.21834,38.21834,0,0,1-.4362,5.67075Zm25.15509-32.13442q-10.17951,0-16.86694,5.74341a24.86228,24.86228,0,0,0-8.28815,15.34026h48.56517Q447.16075,51.03811,440.62,45.657A23.3252,23.3252,0,0,0,425.35255,40.27714Z"/><path class="cls-2" d="M48.72044,125.94831,27.47,195.91916h0A27.46625,27.46625,0,0,1,0,168.45355c0-35.74072,0-97.83943,0-133.6298A27.62005,27.62005,0,0,1,27.54673,7.20459c16.94482-.047,33.89063-.089,50.83208.05242,24.02824.20064,47.14376,11.30389,60.77045,31.46526,12.87061,19.04271,15.54359,44.47206,7.22481,65.8653-8.5522,21.99351-27.676,37.531-49.96979,44.16605L89.71113,125.43h25.87035L82.92842,77.74616h21.76871L68.41594,25.9159,33.68967,77.74616H54.94008L22.287,125.94831Z"/></g></g></svg>