<svg xmlns="http://www.w3.org/2000/svg" viewBox="0 0 945.95608 424.47883"><defs><style>.cls-1{fill:#98c940;}.cls-2{fill:#0c313f;}</style></defs><g id="Layer_2" data-name="Layer 2"><g id="Layer_1-2" data-name="Layer 1"><path class="cls-1" d="M102.85521,265.90246,57.99283,413.62006h-.00006A57.98484,57.98484,0,0,1,0,355.63658C0,280.18324,0,149.08477.00008,73.52663A58.30954,58.30954,0,0,1,58.15474,15.219c35.77274-.09926,71.54755-.188,107.31316.11067,50.72674.42356,99.52661,23.864,128.29436,66.42727,27.17152,40.20163,32.81453,93.88631,15.2525,139.05023C290.96,267.23832,250.58717,300.04,203.522,314.04746l-14.13012-49.2392h54.61569L175.07271,164.14145h45.95658L144.435,54.721,71.12329,164.14145h44.86238l-68.93488,101.761Z"/><path class="cls-2" d="M774.60243,310.71337a12.18281,12.18281,0,0,0-8.965-3.66052,12.50069,12.50069,0,0,0-12.35437,12.35437,12.18246,12.18246,0,0,0,3.66052,8.965,11.926,11.926,0,0,0,8.69385,3.64366,12.444,12.444,0,0,0,12.60862-12.60863A11.92643,11.92643,0,0,0,774.60243,310.71337Zm-30.77583,0a12.35466,12.35466,0,0,0-21.04823,8.69385,12.1825,12.1825,0,0,0,3.66052,8.965,12.1937,12.1937,0,0,0,17.38771,0,12.1825,12.1825,0,0,0,3.66052-8.965A11.877,11.877,0,0,0,743.8266,310.71337Z"/><path class="cls-2" d="M937.2435,310.71337a12.36317,12.36317,0,0,0-21.06519,8.69385,12.1825,12.1825,0,0,0,3.66052,8.965,12.21393,12.21393,0,0,0,17.40467,0,12.1825,12.1825,0,0,0,3.66052-8.965A11.877,11.877,0,0,0,937.2435,310.71337Z"/><path class="cls-2" d="M616.11148,199.91071A12.48557,12.48557,0,0,1,628.46756,212.267a12.18227,12.18227,0,0,1-3.65612,8.9519,12.17837,12.17837,0,0,1-17.39993,0,12.165,12.165,0,0,1-3.65612-8.9519,12.48557,12.48557,0,0,1,12.35609-12.35624Z"/><path class="cls-2" d="M456.34258,48.05152q25.87371,0,44.10894,18.85111,18.23307,18.851,18.23464,45.957,0,27.1099-18.23464,45.957-18.239,18.851-44.10894,18.85111-30.55786,0-46.57328-24.39547v70.4756H388.33111V51.25507H409.7693V72.447Q425.78471,48.05152,456.34258,48.05152ZM453.632,156.96838q18.4813,0,31.04885-12.69029Q497.248,131.58917,497.248,112.85963q0-18.724-12.56715-31.41846Q472.11308,68.75285,453.632,68.75088q-18.72954,0-31.29513,12.69029-12.56715,12.6945-12.56754,31.41846,0,18.72984,12.56754,31.41846Q434.904,156.97231,453.632,156.96838Z"/><path class="cls-2" d="M550.966,28.831a14.04549,14.04549,0,0,1-10.34949-4.189,13.7569,13.7569,0,0,1-4.18944-10.10321,14.17116,14.17116,0,0,1,4.18944-10.22635A13.86061,13.86061,0,0,1,550.966,0a13.58751,13.58751,0,0,1,10.10321,4.31238,14.18665,14.18665,0,0,1,4.189,10.22635,13.77168,13.77168,0,0,1-4.189,10.10321A13.76282,13.76282,0,0,1,550.966,28.831Zm-10.84243,145.6332V51.25507h21.43819V174.46419Z"/><path class="cls-2" d="M924.262,164.833v88.51461a8.87706,8.87706,0,0,1-2.5251,6.5585,9.15224,9.15224,0,0,1-7.0669,3.01653H777.50042a24.64179,24.64179,0,0,0,.74567-6.05V177.47553c1.915.11864,3.847.18639,5.8298.18639q36.22436,0,54.21365-27.844l-18.23506-10.33767q-11.08335,17.97238-35.48716,17.98082-17.48938,0-29.454-9.11754-11.94771-9.10062-15.15068-25.624H843.2211a64.926,64.926,0,0,0,.72881-9.609q0-26.86961-17.1166-45.96044-17.13347-19.0909-44.23181-19.09938-28.59817,0-46.58747,18.4892-17.97239,18.48082-17.98092,46.31637,0,28.08974,18.3537,46.452a59.689,59.689,0,0,0,20.43816,13.4898v80.54947a9.13067,9.13067,0,0,1-3.03348,7.04993,8.81117,8.81117,0,0,1-6.55851,2.5251h-47.9094V164.833h-.017V98.80727q0-23.387-13.06623-37.0802Q673.17433,48.05078,651.4989,48.05078q-26.86944,0-39.91032,20.94655V51.2538h-21.438V174.459h21.438V109.1619q0-20.69241,9.84624-30.67415Q631.298,68.49747,647.313,68.5059q14.28636,0,22.42094,8.25321,8.13462,8.2617,8.13467,23.28526V174.459h.01686V278.05644q0,26.23392-15.11675,36.5717-12.86283,8.56673-44.38438,8.55825-33.04678,0-46.28244-9.94792-13.21874-9.96483-13.23565-35.182V217.03H548.27436l-10.84617,8.82936v52.70544q0,32.767,21.43809,49.16346,17.64191,13.3711,45.63844,13.37116h27.99659q28.7507,0,46.65522-14.37108,19.42138-15.88788,20.16705-45.89269H755.2997a21.30915,21.30915,0,0,0,17.65892-8.82936h.76264l7.30418,8.82936H922.73681a21.49967,21.49967,0,0,0,16.89618-7.82954,23.4564,23.4564,0,0,0,6.05012-16.13353V164.833ZM754.01181,77.99622q11.33748-9.736,28.58969-9.74457a39.55543,39.55543,0,0,1,25.86125,9.11753q11.10879,9.12608,13.81179,26.62389H739.96262Q742.68265,87.72382,754.01181,77.99622Z"/><path class="cls-2" d="M412.44528,379.28891v32.78851h-6.57653v-13.951H391.82359v13.951h-6.57653V379.28891h6.57653v13.48181h14.04516V379.28891Z"/><path class="cls-2" d="M443.82464,386.05374l-16.11335,38.33094H420.7134L426.35,411.41992l-10.42892-25.36618h7.376l6.717,18.17845,6.81113-18.17845Z"/><path class="cls-2" d="M457.4222,386.82854a10.61754,10.61754,0,0,1,5.09793-1.1977,11.38633,11.38633,0,0,1,6.03633,1.64375,11.58429,11.58429,0,0,1,4.27375,4.675,15.01476,15.01476,0,0,1,1.57429,7.02258,15.30658,15.30658,0,0,1-1.57429,7.06888,11.83845,11.83845,0,0,1-4.27375,4.76764,11.139,11.139,0,0,1-6.03633,1.69159,10.50313,10.50313,0,0,1-5.05008-1.17454,10.81351,10.81351,0,0,1-3.54679-2.95875v16.11181h-6.57653V386.05374h6.57653V389.812A9.97859,9.97859,0,0,1,457.4222,386.82854Zm9.30222,8.07983a6.66694,6.66694,0,0,0-2.53739-2.60685,6.79669,6.79669,0,0,0-3.40479-.89364,6.56615,6.56615,0,0,0-3.36.91679,6.79715,6.79715,0,0,0-2.53584,2.65469,9.15,9.15,0,0,0,0,8.17243,6.797,6.797,0,0,0,2.53584,2.65469,6.63569,6.63569,0,0,0,6.76483-.02315,6.98473,6.98473,0,0,0,2.53739-2.67784,8.4205,8.4205,0,0,0,.96155-4.13329A8.18367,8.18367,0,0,0,466.72442,394.90837Z"/><path class="cls-2" d="M503.19862,401.03885H484.17437a6.47369,6.47369,0,0,0,1.9725,4.41573,6.08281,6.08281,0,0,0,4.27528,1.5959,5.36655,5.36655,0,0,0,5.21369-3.147h7.09358a11.85049,11.85049,0,0,1-4.32159,6.17833,12.61713,12.61713,0,0,1-7.84522,2.41854,13.56066,13.56066,0,0,1-6.74014-1.66844,11.72135,11.72135,0,0,1-4.65033-4.71979,14.45708,14.45708,0,0,1-1.66845-7.04727,14.72047,14.72047,0,0,1,1.64529-7.092,11.479,11.479,0,0,1,4.6025-4.69818,14.782,14.782,0,0,1,13.45865-.0463,11.24325,11.24325,0,0,1,4.55619,4.533,13.71667,13.71667,0,0,1,1.6206,6.74014A15.55121,15.55121,0,0,1,503.19862,401.03885Zm-6.62283-4.41574a5.21568,5.21568,0,0,0-1.832-4.06384,6.4942,6.4942,0,0,0-4.36789-1.52644,5.96727,5.96727,0,0,0-4.11014,1.48014,6.49844,6.49844,0,0,0-2.04349,4.11014Z"/><path class="cls-2" d="M518.06643,386.85169a9.20727,9.20727,0,0,1,4.67348-1.17454v6.90528H521.002a6.65868,6.65868,0,0,0-4.67349,1.457q-1.5743,1.45621-1.57429,5.07323v12.96477h-6.57653V386.05374h6.57653v4.03914A9.26337,9.26337,0,0,1,518.06643,386.85169Z"/><path class="cls-2" d="M560.7421,379.57136v32.50606h-4.27374V387.83794l-10.804,24.23948H542.6578L531.806,387.79164v24.28578h-4.27374V379.57136h4.60249l12.02636,26.86947,12.02482-26.86947Z"/><path class="cls-2" d="M567.97613,392.18422a11.57259,11.57259,0,0,1,4.391-4.62718,12.05031,12.05031,0,0,1,6.22463-1.64375,11.418,11.418,0,0,1,5.87119,1.45545,9.72156,9.72156,0,0,1,3.71194,3.66409v-4.69819h4.32158v25.74278h-4.32158v-4.79079a10.07409,10.07409,0,0,1-3.78139,3.73354,11.31936,11.31936,0,0,1-5.84958,1.48014,11.65927,11.65927,0,0,1-6.19994-1.69159,11.84525,11.84525,0,0,1-4.36789-4.74448,14.74886,14.74886,0,0,1-1.59744-6.95159A14.438,14.438,0,0,1,567.97613,392.18422Zm19.02425,1.9015a8.29531,8.29531,0,0,0-3.17174-3.31064,8.99189,8.99189,0,0,0-8.76047-.0247,8.18357,8.18357,0,0,0-3.147,3.289,10.46847,10.46847,0,0,0-1.17455,5.07323,10.71715,10.71715,0,0,0,1.17455,5.14424,8.30631,8.30631,0,0,0,3.147,3.33379,8.5,8.5,0,0,0,4.36943,1.1514,8.61869,8.61869,0,0,0,4.391-1.1514,8.2596,8.2596,0,0,0,3.17174-3.33379,10.61053,10.61053,0,0,0,1.17455-5.09793A10.47273,10.47273,0,0,0,587.00038,394.08572Z"/><path class="cls-2" d="M607.22232,387.08629a9.95115,9.95115,0,0,1,5.09639-1.22085v4.41574H611.192q-7.18849,0-7.18773,7.79738v13.99886h-4.27374V386.33464h4.27374v4.18114A8.21085,8.21085,0,0,1,607.22232,387.08629Z"/><path class="cls-2" d="M622.46518,389.85828v15.1734a3.6063,3.6063,0,0,0,.798,2.65315,3.93665,3.93665,0,0,0,2.772.7748h3.147v3.61779h-3.85238a7.66441,7.66441,0,0,1-5.35414-1.64375q-1.78729-1.64374-1.78574-5.402v-15.1734h-3.33534v-3.52364h3.33534v-6.48238h4.27528v6.48238h6.717v3.52364Z"/><path class="cls-2" d="M714.07821,384.91315v12.9802c0,5.46218-2.28736,8.21719-6.81576,8.21719H692.92867q-13.44631,0-13.44631-13.58676v-7.65693h3.269v7.65693c0,6.95621,3.31373,10.31779,9.89643,10.31779h13.54046c3.31528,0,4.62256-1.25944,4.62256-6.39595V384.91315Zm-18.535-.0463H692.228V380.8987h3.31528Zm6.11659,0h-3.31528V380.8987h3.31528Z"/><path class="cls-2" d="M727.37481,384.91315v17.22924c0,7.61063-2.94177,11.25157-9.80538,11.62508V410.639c4.34166,0,6.53641-2.38,6.53641-7.89V384.91315Z"/><path class="cls-2" d="M743.89716,406.11054h-3.68878a5.77777,5.77777,0,0,1-4.24905-1.77494,7.45458,7.45458,0,0,1-2.00645-5.64893v-22.784h3.36158v20.82388a8.78174,8.78174,0,0,0,.93223,4.621,3.57717,3.57717,0,0,0,2.66241,1.44773,29.41208,29.41208,0,0,0,2.98806.04631Z"/><path class="cls-2" d="M753.09134,406.11054h-9.85167v-3.269h9.85167Z"/><path class="cls-2" d="M762.33337,406.11054h-9.85168v-3.269h9.85168Z"/><path class="cls-2" d="M771.5723,406.11054h-9.85013v-3.269h9.85013Z"/><path class="cls-2" d="M797.20241,399.57414a11.04662,11.04662,0,0,1-2.52042,7.47017,8.85792,8.85792,0,0,1-7.14451,3.12852,9.01749,9.01749,0,0,1-8.07674-4.06229h-9.01051v-3.269h7.65693a11.65586,11.65586,0,0,1-.41981-3.22113,11.041,11.041,0,0,1,2.66086-7.61062,9.17478,9.17478,0,0,1,7.23712-2.98807,9.0373,9.0373,0,0,1,7.18927,3.03591A11.188,11.188,0,0,1,797.20241,399.57414Zm-3.78139-.32721a9.37224,9.37224,0,0,0-1.21314-5.04237,5.03537,5.03537,0,0,0-4.4821-2.28735,5.37442,5.37442,0,0,0-4.80931,2.47411,9.67788,9.67788,0,0,0-1.35513,5.41587,9.01621,9.01621,0,0,0,1.35513,5.13652,5.27393,5.27393,0,0,0,4.621,2.28735Q793.42257,407.23106,793.421,399.24693Z"/><path class="cls-2" d="M832.71968,406.11054h-7.23557c-1.07422,5.13651-5.27542,7.70323-12.69929,7.70323v-5.27543q6.443,0,6.44225-6.16289V384.961h6.58425v14.8925h6.90836Z"/><path class="cls-2" d="M852.27641,406.11054H831.21947v-6.257h4.29535c2.19475,0,3.31528-1.494,3.31528-4.48211V384.961h6.5827v10.17734a13.86113,13.86113,0,0,1-.79332,4.71516h7.65693Zm-7.51648,7.75107h-5.78938V408.4442h5.78938Z"/><path class="cls-2" d="M856.09947,413.86161h-5.78938V408.4442h5.78938ZM865.34458,397.1a9.34552,9.34552,0,0,1-2.05584,6.16289,7.75863,7.75863,0,0,1-6.39595,2.84762h-5.55633v-6.257h4.15645c2.1932,0,3.31373-1.54034,3.31373-4.57471V384.961h6.53794Zm-.42135,16.76158h-5.83569V408.4442h5.83569Z"/><path class="cls-2" d="M884.15429,406.11054H877.9914c-4.99606,0-7.89-2.89547-7.89-7.70323V375.99679h6.53485v19.00109c0,3.17637.79487,4.85562,5.60263,4.85562h1.91539Z"/><path class="cls-2" d="M893.20648,406.11054h-9.99059v-6.257h9.99059Z"/><path class="cls-2" d="M902.4485,406.11054h-9.99058v-6.257h9.99058Z"/><path class="cls-2" d="M911.689,406.11054H901.6984v-6.257H911.689Z"/><path class="cls-2" d="M944.78926,406.11054H910.00665v-6.257h6.95621a9.22384,9.22384,0,0,1-.88747-4.06075c0-5.65048,4.06229-9.29142,9.898-9.29142,5.74308,0,9.85168,3.45573,9.85168,9.29142a9.85759,9.85759,0,0,1-.84117,4.06075h4.52995l.09261-2.38c-.09261-7.00406-3.78139-12.51254-10.92436-13.25956l.56026-6.30334a19.49105,19.49105,0,0,1,13.30586,7.74953,19.79153,19.79153,0,0,1,3.40788,11.76706A35.39516,35.39516,0,0,1,944.78926,406.11054ZM929.61585,395.7449c0-2.28735-1.35512-3.96814-3.64248-3.96814s-3.59463,1.68079-3.59463,3.96814c0,2.38151,1.494,4.15644,3.59463,4.15644C928.07551,399.90134,929.61585,398.0801,929.61585,395.7449Z"/><path class="cls-1" d="M661.27573,392.66188a5.8084,5.8084,0,0,0-9.89559,4.08732,5.72746,5.72746,0,0,0,1.721,4.21478,5.73275,5.73275,0,0,0,8.17464,0,5.72746,5.72746,0,0,0,1.721-4.21478A5.58381,5.58381,0,0,0,661.27573,392.66188Z"/></g></g></svg>